<?xml version="1.0" encoding="UTF-8"?>
<svg version="1.1" xmlns="http://www.w3.org/2000/svg" width="832" height="897">
<path d="M0 0 C8.13263648 7.75176921 15.6811439 15.63581405 22.59521484 24.52050781 C23.60297629 25.78747551 24.61079241 27.05439971 25.61865234 28.32128906 C33.71301679 38.59677696 40.9103546 49.2797237 47.59521484 60.52050781 C47.96984863 61.14570313 48.34448242 61.77089844 48.73046875 62.41503906 C68.9217396 96.60091669 80.24605023 139.94501256 81.59521484 179.52050781 C81.62244629 180.28363281 81.64967773 181.04675781 81.67773438 181.83300781 C83.2564487 233.30505211 70.58732175 283.36690084 53.59521484 331.52050781 C53.37029358 332.15941956 53.14537231 332.7983313 52.91363525 333.456604 C36.79136875 379.16461745 16.28494112 423.98311533 -7.94238281 465.96289062 C-9.71861727 469.06937346 -11.4382768 472.20441088 -13.15283203 475.34521484 C-19.51151171 486.97408101 -26.41529395 498.26231831 -33.40478516 509.52050781 C-33.95086426 510.40158203 -34.49694336 511.28265625 -35.05957031 512.19042969 C-53.37173798 541.62722537 -73.16028063 570.12911619 -94.40478516 597.52050781 C-94.88689453 598.14441406 -95.36900391 598.76832031 -95.86572266 599.41113281 C-101.66578207 606.90955216 -107.6314381 614.23323277 -113.79150391 621.43847656 C-116.19559828 624.25685811 -118.5224651 627.13222734 -120.84228516 630.02050781 C-124.70868683 634.77541831 -128.79007383 639.28712426 -132.98071289 643.75488281 C-135.59539553 646.54387763 -138.14809996 649.36841617 -140.64282227 652.265625 C-144.1464927 656.27698687 -147.81715908 660.07806949 -151.58837891 663.83691406 C-152.24757828 664.49707016 -152.90677765 665.15722626 -153.58595276 665.83738708 C-154.9687535 667.22086287 -156.35279591 668.60309864 -157.73803711 669.98413086 C-159.83708858 672.07782451 -161.93074456 674.17680656 -164.02392578 676.27636719 C-165.37842301 677.63020352 -166.73323047 678.98372956 -168.08837891 680.33691406 C-168.7032164 680.95377579 -169.31805389 681.57063751 -169.95152283 682.20619202 C-204.19836299 716.27234358 -251.19158296 747.21033945 -299.40478516 755.52050781 C-300.39357666 755.69187256 -300.39357666 755.69187256 -301.40234375 755.86669922 C-327.90662258 760.20376303 -354.8550101 757.36930518 -380.40478516 749.52050781 C-381.18466797 749.28380371 -381.96455078 749.04709961 -382.76806641 748.80322266 C-418.49006454 737.7314495 -451.51750495 717.10366844 -478.92822266 691.78613281 C-480.95442133 689.93251258 -483.00901624 688.13401304 -485.08862305 686.34155273 C-489.19732332 682.74961118 -493.0881684 678.98218262 -496.93994141 675.11816406 C-497.62229355 674.43676865 -498.30464569 673.75537323 -499.00767517 673.05332947 C-500.43822952 671.6234504 -501.86754283 670.1923287 -503.2956543 668.76000977 C-505.4617759 666.5885307 -507.6331869 664.42244456 -509.80517578 662.25683594 C-511.20458503 660.85676579 -512.60368399 659.45638543 -514.00244141 658.05566406 C-514.64117691 657.41895279 -515.27991241 656.78224152 -515.93800354 656.12623596 C-520.29002685 651.75188159 -524.39047127 647.20557012 -528.40478516 642.52050781 C-528.9188945 641.92374741 -529.43300385 641.326987 -529.96269226 640.71214294 C-531.34267163 639.10952236 -532.71810443 637.50310258 -534.09228516 635.89550781 C-537.20502156 632.25421211 -540.31913971 628.61462063 -543.45947266 624.99707031 C-550.36585099 617.02713882 -556.97460128 608.87836571 -563.40478516 600.52050781 C-564.01370605 599.73224609 -564.62262695 598.94398438 -565.25 598.13183594 C-573.76197872 587.10175643 -582.09368661 575.97902326 -590.02099609 564.52050781 C-591.38577367 562.54798524 -592.75807446 560.58087191 -594.13134766 558.61425781 C-606.98628013 540.13920168 -618.83786232 521.07262855 -630.43457031 501.79248047 C-632.18268491 498.88935384 -633.93822686 495.99094405 -635.69775391 493.09472656 C-646.67900193 474.98020798 -657.00486857 456.54888202 -666.70947266 437.71972656 C-668.2651542 434.70295842 -669.83630954 431.69997849 -671.47509766 428.72753906 C-678.47716339 415.99784216 -684.39385375 402.73724877 -690.40478516 389.52050781 C-690.87819336 388.48635742 -691.35160156 387.45220703 -691.83935547 386.38671875 C-713.52999307 338.86123376 -729.25849955 290.17156194 -737.40478516 238.52050781 C-737.58557617 237.42689941 -737.76636719 236.33329102 -737.95263672 235.20654297 C-744.0355021 197.5423596 -742.08084911 157.34907456 -732.40478516 120.52050781 C-732.18983398 119.69276855 -731.97488281 118.8650293 -731.75341797 118.01220703 C-722.76823498 84.11966703 -706.00980048 53.90999846 -684.40478516 26.52050781 C-683.97746094 25.97458984 -683.55013672 25.42867187 -683.10986328 24.86621094 C-669.00426188 7.06366564 -651.8430245 -10.22003193 -633.40478516 -23.47949219 C-632.15915852 -24.43596745 -630.91713928 -25.39715378 -629.67822266 -26.36230469 C-619.68072481 -34.10824846 -609.21927265 -40.9334167 -598.40478516 -47.47949219 C-597.65390625 -47.93678711 -596.90302734 -48.39408203 -596.12939453 -48.86523438 C-543.68701173 -80.61870853 -485.47768125 -98.96046816 -425.40478516 -109.47949219 C-424.68790527 -109.6053772 -423.97102539 -109.73126221 -423.23242188 -109.86096191 C-338.16712854 -124.70323503 -246.46693192 -117.77062246 0 0 Z M-536.40478516 -37.47949219 C-535.82741194 -33.82292236 -534.4361365 -32.14018722 -531.83813477 -29.55639648 C-531.0832225 -28.79848312 -530.32831024 -28.04056976 -529.55052185 -27.25968933 C-528.72770218 -26.44921646 -527.90488251 -25.63874359 -527.05712891 -24.80371094 C-526.21187149 -23.96032669 -525.36661407 -23.11694244 -524.4957428 -22.2480011 C-522.70272156 -20.46170747 -520.90610369 -18.67901792 -519.10620117 -16.8996582 C-516.37056724 -14.1949545 -513.6455334 -11.47994174 -510.92236328 -8.76269531 C-509.17623505 -7.02574715 -507.42950884 -5.28939988 -505.68212891 -3.55371094 C-504.87347885 -2.74931076 -504.0648288 -1.94491058 -503.23167419 -1.11613464 C-499.02746183 3.03609146 -494.74141284 7.0207997 -490.26649475 10.87870789 C-487.3364087 13.46268504 -484.59804748 16.2223823 -481.85791016 19.00488281 C-481.27942322 19.58715637 -480.70093628 20.16942993 -480.10491943 20.76934814 C-478.28570982 22.6006108 -476.46983562 24.43512336 -474.65478516 26.27050781 C-472.24624616 28.70571663 -469.8343539 31.13753281 -467.42041016 33.56738281 C-466.87555969 34.12053162 -466.33070923 34.67368042 -465.76934814 35.24359131 C-464.33364422 36.68851396 -462.87038641 38.10591948 -461.40478516 39.52050781 C-460.72383789 40.17954102 -460.04289062 40.83857422 -459.34130859 41.51757812 C-457.37818894 42.80005418 -457.37818894 42.80005418 -454.90014648 41.93725586 C-452.31455025 40.4692767 -450.54139825 38.98661881 -448.47900391 36.85253906 C-447.76421875 36.12357422 -447.04943359 35.39460938 -446.31298828 34.64355469 C-445.58015625 33.88107422 -444.84732422 33.11859375 -444.09228516 32.33300781 C-442.6404194 30.83702817 -441.18600628 29.34351638 -439.72900391 27.85253906 C-439.09051514 27.18971924 -438.45202637 26.52689941 -437.79418945 25.84399414 C-435.85782459 23.96104897 -433.89529599 22.21066294 -431.84577942 20.45654297 C-427.01635214 16.24150373 -422.48944877 11.75287656 -417.95947266 7.22045898 C-417.05122238 6.31556732 -416.14297211 5.41067566 -415.2071991 4.47836304 C-412.74046702 2.02038289 -410.27690856 -0.44075347 -407.81422806 -2.90279222 C-406.27432376 -4.4419823 -404.73370821 -5.98045681 -403.19284058 -7.51868248 C-397.81516997 -12.88713707 -392.44005225 -18.25813222 -387.06738281 -23.6315918 C-382.05943657 -28.64014157 -377.04590774 -33.64305538 -372.02980042 -38.64343053 C-367.71613756 -42.94404535 -363.40631073 -47.24847865 -359.0994873 -51.55594271 C-356.52980055 -54.12588476 -353.95857497 -56.69424022 -351.38348389 -59.25876808 C-348.5217213 -62.10910679 -345.66796783 -64.96733296 -342.81494141 -67.82641602 C-341.52936592 -69.10356224 -341.52936592 -69.10356224 -340.21781921 -70.4065094 C-339.44686417 -71.18165894 -338.67590912 -71.95680847 -337.8815918 -72.75544739 C-337.20616837 -73.43032605 -336.53074493 -74.10520472 -335.83485413 -74.80053425 C-334.1886432 -76.36567693 -334.1886432 -76.36567693 -334.40478516 -78.47949219 C-403.89604012 -80.43254875 -472.18136619 -62.94111187 -536.40478516 -37.47949219 Z M-258.40478516 -72.47949219 C-258.49903377 -70.68378945 -258.52189661 -68.88432276 -258.51780224 -67.08615303 C-258.51754329 -65.90862437 -258.51728434 -64.73109572 -258.51701754 -63.51788437 C-258.51157799 -62.20770305 -258.50613844 -60.89752173 -258.50053406 -59.54763794 C-258.49827412 -58.15473106 -258.49644926 -56.76182342 -258.49502498 -55.36891544 C-258.48978531 -51.52321518 -258.47821058 -47.67755547 -258.46562588 -43.83187318 C-258.45314176 -39.69137918 -258.44638855 -35.55087532 -258.43887329 -31.41036987 C-258.42314424 -23.29140758 -258.40180845 -15.1724692 -258.37829527 -7.05352606 C-258.35921429 -0.45699129 -258.34171971 6.13954574 -258.32535744 12.7360878 C-258.27883479 31.41908209 -258.22811205 50.10205815 -258.17201438 68.78502618 C-258.16898743 69.79327711 -258.16596047 70.80152804 -258.1628418 71.84033203 C-258.1598103 72.84980739 -258.15677881 73.85928275 -258.15365545 74.89934827 C-258.10476705 91.26402218 -258.06583314 107.62870267 -258.03142085 123.99341284 C-257.99601382 140.77755704 -257.95322011 157.56166822 -257.90266544 174.34577382 C-257.87441209 183.77639872 -257.84924901 193.20700892 -257.83200645 202.63766098 C-257.81726722 210.66677574 -257.79569338 218.69583554 -257.76513132 226.72490631 C-257.74972518 230.82443372 -257.73757974 234.9239041 -257.73402977 239.02346039 C-257.73070258 242.77260064 -257.71827616 246.52159377 -257.69843803 250.27068199 C-257.69022101 252.27757617 -257.6918577 254.28450311 -257.69378299 256.29141319 C-257.6816597 258.06552942 -257.6816597 258.06552942 -257.6692915 259.87548637 C-257.6664711 260.90056891 -257.66365071 261.92565145 -257.66074485 262.9817971 C-257.58039764 265.76456118 -257.58039764 265.76456118 -255.40478516 268.52050781 C-251.35520042 269.7912131 -247.26311522 269.64734629 -243.0480957 269.64990234 C-242.30906163 269.65162917 -241.57002756 269.653356 -240.80859852 269.65513515 C-238.30287856 269.65953023 -235.79722499 269.65649989 -233.29150391 269.65332031 C-231.44909647 269.65438538 -229.6066892 269.65577449 -227.76428223 269.65745544 C-222.62950392 269.66032221 -217.49475571 269.65574438 -212.35998154 269.64928055 C-209.09013581 269.64550533 -205.82029301 269.64343552 -202.55044556 269.64181519 C-157.10034259 269.61560514 -111.65066749 269.38268383 -66.20135063 269.13023305 C-59.49991341 269.09312081 -52.79846734 269.05807777 -46.09701538 269.02374268 C-37.82726876 268.98120254 -29.55755299 268.93482839 -21.28785408 268.88382989 C-17.00461953 268.85744878 -12.72138983 268.83247713 -8.43812561 268.81139946 C-4.46861247 268.79176407 -0.49915201 268.76761942 3.47031343 268.74000907 C4.9105327 268.73073653 6.35076314 268.72303241 7.79100001 268.71709085 C15.4513891 268.68447574 22.99065889 268.48786986 30.59521484 267.52050781 C33.84168533 259.26768442 35.97657247 251.0860428 37.72021484 242.39550781 C37.97158203 241.20441406 38.22294922 240.01332031 38.48193359 238.78613281 C41.73465843 222.88013807 43.01043833 207.29695992 42.97021484 191.08300781 C42.96933868 190.21199432 42.96846252 189.34098083 42.96755981 188.443573 C42.84521706 151.36017108 33.26259791 116.10504864 15.59521484 83.52050781 C15.22702637 82.83923828 14.85883789 82.15796875 14.47949219 81.45605469 C5.34657968 64.77486537 -6.14551445 50.10628759 -19.40478516 36.52050781 C-20.06559082 35.83923828 -20.72639648 35.15796875 -21.40722656 34.45605469 C-29.69507872 25.93961121 -37.98239571 17.77993842 -47.40478516 10.52050781 C-48.49122783 9.64644738 -49.57575766 8.7700057 -50.65869141 7.89160156 C-73.53866623 -10.56698146 -238.72750051 -92.15677683 -258.40478516 -72.47949219 Z M-299.97119141 -56.97558594 C-301.28397669 -55.62169583 -302.59648466 -54.26753677 -303.90869141 -52.91308594 C-305.85906583 -51.01154718 -307.82286768 -49.25331596 -309.89233398 -47.48974609 C-315.19836785 -42.85916526 -320.13619226 -37.87264586 -325.10009766 -32.88183594 C-326.15209913 -31.82791126 -327.20433149 -30.774217 -328.2567749 -29.72073364 C-330.50838228 -27.46598455 -332.75843136 -25.20969629 -335.00726318 -22.95217896 C-338.56943979 -19.37638709 -342.13551057 -15.80449557 -345.70214844 -12.2331543 C-353.27267147 -4.65156931 -360.83895159 2.93424353 -368.40478516 10.52050781 C-376.57502101 18.7128065 -384.74599835 26.90435744 -392.92188072 35.09102154 C-396.46110236 38.63519991 -399.99787742 42.18179575 -403.53274536 45.73031616 C-405.73854425 47.94361844 -407.94645263 50.15480735 -410.15491486 52.36545181 C-411.17159158 53.38398716 -412.1874104 54.40337975 -413.20226288 55.42373276 C-418.23900982 60.48689802 -423.31211935 65.42487853 -428.73376465 70.07533264 C-430.80240211 71.86438519 -432.7487298 73.75087011 -434.67431641 75.69238281 C-435.4086792 76.43004883 -436.14304199 77.16771484 -436.8996582 77.92773438 C-437.6644751 78.70084961 -438.42929199 79.47396484 -439.21728516 80.27050781 C-440.03044189 81.08745117 -440.84359863 81.90439453 -441.68139648 82.74609375 C-444.25831813 85.33513452 -446.83196141 87.92739518 -449.40478516 90.52050781 C-452.79765669 93.940135 -456.19393173 97.3563293 -459.59228516 100.77050781 C-460.35710205 101.54362305 -461.12191895 102.31673828 -461.90991211 103.11328125 C-462.6442749 103.85094727 -463.3786377 104.58861328 -464.13525391 105.34863281 C-464.76842529 105.98704102 -465.40159668 106.62544922 -466.05395508 107.28320312 C-468.04804906 109.18099908 -470.0804753 110.98211299 -472.16381836 112.77954102 C-476.47084648 116.52664457 -480.50904843 120.49772248 -484.52978516 124.54785156 C-485.29838867 125.31791534 -486.06699219 126.08797913 -486.85888672 126.88137817 C-488.5143052 128.54057889 -490.16856829 130.20093303 -491.82177734 131.86233521 C-494.44339901 134.496811 -497.06821093 137.12807106 -499.69384766 139.75854492 C-505.26697739 145.34305952 -510.83619747 150.93146502 -516.40478516 156.52050781 C-522.86155772 163.00099805 -529.32002777 169.4797831 -535.78271484 175.95437622 C-538.35932833 178.53743724 -540.93289344 181.12350882 -543.50634766 183.7097168 C-545.0973441 185.30434828 -546.68848253 186.89883812 -548.27978516 188.49316406 C-548.98651367 189.2050589 -549.69324219 189.91695374 -550.42138672 190.65042114 C-554.3894141 194.61886444 -558.46066184 198.40335315 -562.7172699 202.0612793 C-564.71248456 203.7865817 -566.60641634 205.58895935 -568.46728516 207.45800781 C-569.05638672 208.04453125 -569.64548828 208.63105469 -570.25244141 209.23535156 C-572.01362146 211.10520697 -573.67522403 213.00699184 -575.34033203 214.96044922 C-579.68542312 219.93346655 -584.3480244 224.57744252 -589.03429985 229.2251873 C-590.62093864 230.79889595 -592.20428565 232.37585376 -593.78688049 233.95362854 C-597.13585044 237.29127275 -600.48879043 240.62491074 -603.84228516 243.95800781 C-607.75487634 247.84698985 -611.66581952 251.73760097 -615.57261848 255.63240242 C-617.13504745 257.18833593 -618.70044656 258.74123909 -620.26597595 260.29405212 C-621.21400285 261.23845023 -622.16189172 262.18298691 -623.10961914 263.12768555 C-623.94122055 263.95405014 -624.77282196 264.78041473 -625.62962341 265.63182068 C-627.51892985 267.20995635 -627.51892985 267.20995635 -627.40478516 268.52050781 C-586.10384233 268.56626952 -544.80290243 268.60151902 -503.50193929 268.62263847 C-498.62775766 268.62513993 -493.75357608 268.62772857 -488.87939453 268.63037109 C-487.90901859 268.63089571 -486.93864265 268.63142034 -485.93886138 268.63196085 C-470.21954794 268.64066727 -454.50024911 268.65643855 -438.78094433 268.6748134 C-422.65563932 268.69350587 -406.53034196 268.70462315 -390.40502656 268.7086848 C-380.45208827 268.71143122 -370.49919126 268.7201106 -360.54626568 268.73634075 C-353.72437627 268.74689955 -346.90250826 268.75011094 -340.08061127 268.74751057 C-336.14272148 268.74622756 -332.20490391 268.74821658 -328.2670269 268.75891876 C-324.66205068 268.76864477 -321.0571953 268.76914696 -317.45221354 268.7623056 C-315.52998013 268.76105926 -313.60774815 268.7696909 -311.68553531 268.77867043 C-310.54148546 268.77468833 -309.39743561 268.77070624 -308.21871758 268.76660347 C-307.23372304 268.76736291 -306.2487285 268.76812235 -305.23388565 268.76890481 C-302.05210559 268.4895423 -299.38833214 267.6346793 -296.40478516 266.52050781 C-296.38190393 225.98392517 -296.36427936 185.44734337 -296.35371983 144.91075557 C-296.3524691 140.12670162 -296.35117478 135.34264768 -296.34985352 130.55859375 C-296.34959121 129.6061615 -296.34932889 128.65372925 -296.34905864 127.67243542 C-296.34470552 112.24412145 -296.33681992 96.8158112 -296.32763236 81.38749944 C-296.31828589 65.56051702 -296.31272743 49.73353655 -296.31069666 33.90655148 C-296.30932351 24.1378834 -296.30498408 14.36922583 -296.29686869 4.60056098 C-296.29158899 -2.09517629 -296.28998366 -8.79090812 -296.29128378 -15.48664732 C-296.29192523 -19.3516064 -296.29093129 -23.21654709 -296.28557968 -27.08150291 C-296.27982213 -31.27017785 -296.28179401 -35.45881347 -296.28453064 -39.64749146 C-296.2816178 -40.87122691 -296.27870496 -42.09496237 -296.27570385 -43.35578072 C-296.2776949 -44.4789302 -296.27968594 -45.60207968 -296.28173733 -46.75926399 C-296.28135761 -47.72603195 -296.28097789 -48.69279991 -296.28058666 -49.68886387 C-296.41389947 -52.68428259 -296.85604972 -55.53413861 -297.40478516 -58.47949219 C-298.64647469 -58.5949204 -298.64647469 -58.5949204 -299.97119141 -56.97558594 Z M-582.15478516 -13.16699219 C-582.81438232 -12.71984863 -583.47397949 -12.27270508 -584.15356445 -11.81201172 C-598.05812764 -2.31597129 -611.44575995 7.73518566 -623.82666016 19.16503906 C-625.938098 21.09412546 -628.08450097 22.93956701 -630.27978516 24.77050781 C-640.94493001 34.08342571 -649.9345119 45.23105269 -658.40478516 56.52050781 C-658.82856445 57.07673828 -659.25234375 57.63296875 -659.68896484 58.20605469 C-666.94785398 67.76926451 -672.84812853 77.88963677 -678.40478516 88.52050781 C-679.00935547 89.65101563 -679.61392578 90.78152344 -680.23681641 91.94628906 C-690.78905011 112.976619 -696.89496182 136.36940616 -700.40478516 159.52050781 C-700.53320801 160.34357422 -700.66163086 161.16664063 -700.79394531 162.01464844 C-706.07630517 196.85605976 -700.11640558 233.47452401 -692.40478516 267.52050781 C-690.53170825 268.15710243 -690.53170825 268.15710243 -688.40478516 268.52050781 C-686.15280929 267.31213052 -684.4017134 266.09308881 -682.40478516 264.52050781 C-681.62103516 263.90949219 -680.83728516 263.29847656 -680.02978516 262.66894531 C-667.57880189 252.71539764 -656.28072044 241.53442996 -645.09228516 230.20800781 C-642.87009444 227.95884643 -640.64432113 225.71331342 -638.41650391 223.46972656 C-637.92985764 222.97478195 -637.44321136 222.47983734 -636.94181824 221.96989441 C-634.34530771 219.35543975 -631.6867446 216.88484354 -628.88061523 214.49633789 C-623.20720071 209.57882529 -617.97982408 204.20612261 -612.69171143 198.88259888 C-610.74221761 196.92019142 -608.78948591 194.96105628 -606.8359375 193.00268555 C-602.68938606 188.84477807 -598.54678882 184.68294504 -594.40478516 180.52050781 C-589.60012436 175.6921444 -584.79380122 170.86546005 -579.98321533 166.04299927 C-578.07136037 164.12472267 -576.1625731 162.20343038 -574.25390625 160.28198242 C-573.06737036 159.09180977 -571.88069145 157.90177967 -570.69384766 156.71191406 C-570.17413391 156.187034 -569.65442017 155.66215393 -569.11895752 155.12136841 C-566.32504119 152.32706151 -563.45870766 149.66686966 -560.47108459 147.0798645 C-556.51729387 143.65440037 -552.77033233 140.06026248 -549.05493164 136.37939453 C-548.3694072 135.70365387 -547.68388275 135.02791321 -546.97758484 134.33169556 C-544.74059027 132.12429767 -542.5075972 129.91292699 -540.27587891 127.70019531 C-539.50968798 126.94057621 -538.74349705 126.18095711 -537.95408821 125.39831924 C-533.91231581 121.38895677 -529.87449731 117.37565278 -525.83911133 113.35986328 C-522.49981593 110.03848458 -519.15218033 106.72586116 -515.79711914 103.42041016 C-511.73521845 99.4184772 -507.68803004 95.40222102 -503.65114021 91.37506485 C-502.11198704 89.84449121 -500.56768985 88.31907273 -499.0182476 86.79891586 C-496.8613137 84.6806303 -494.72380894 82.54446175 -492.59008789 80.40283203 C-491.94450928 79.77725403 -491.29893066 79.15167603 -490.63378906 78.50714111 C-487.34836357 75.27808343 -487.34836357 75.27808343 -486.13365173 71.00230408 C-488.00912101 67.34058567 -490.62706449 64.78359782 -493.55761719 61.92944336 C-494.20000839 61.28807434 -494.8423996 60.64670532 -495.5042572 59.98590088 C-497.63117968 57.86686439 -499.7718113 55.76224813 -501.91259766 53.65722656 C-503.39749992 52.18233136 -504.88144442 50.70647132 -506.36447144 49.22969055 C-510.27576367 45.33934706 -514.1984565 41.46070971 -518.12408447 37.58483887 C-524.38880587 31.39529731 -530.6352035 25.18725261 -536.88338852 18.9810276 C-539.05986774 16.82213147 -541.24057905 14.66758949 -543.42214966 12.51383972 C-544.77335381 11.17587107 -546.1245021 9.837846 -547.47558594 8.49975586 C-548.07534744 7.90987381 -548.67510895 7.31999176 -549.29304504 6.7122345 C-552.97551746 3.05813094 -556.44311041 -0.72999331 -559.82569695 -4.66357708 C-562.17692272 -7.36743262 -564.64213276 -9.92425246 -567.15478516 -12.47949219 C-567.62271484 -12.96804687 -568.09064453 -13.45660156 -568.57275391 -13.95996094 C-569.79219234 -15.19321737 -571.09388434 -16.3439348 -572.40478516 -17.47949219 C-576.51548233 -17.47949219 -578.88260696 -15.4157542 -582.15478516 -13.16699219 Z M-233.43261719 307.96630859 C-234.63035377 307.99542662 -234.63035377 307.99542662 -235.85228705 308.02513289 C-238.06270549 308.08075643 -240.27279911 308.14314041 -242.48294067 308.20877075 C-244.32140407 308.26248935 -244.32140407 308.26248935 -246.19700813 308.31729317 C-249.03265227 308.49693297 -251.64201191 308.87836417 -254.40478516 309.52050781 C-256.81105303 316.80615221 -256.70925976 324.03384583 -256.66552734 331.61889648 C-256.65486038 333.81750399 -256.66543592 336.01528539 -256.67822266 338.21386719 C-257.2009356 353.77138663 -257.2009356 353.77138663 -250.21142578 366.9375 C-246.83973867 369.89182692 -243.30754686 372.54986838 -239.65478516 375.14550781 C-238.82350098 375.74669434 -237.9922168 376.34788086 -237.13574219 376.96728516 C-235.41006013 378.21399174 -233.681687 379.45698156 -231.95068359 380.69628906 C-229.54541773 382.41974002 -227.14920059 384.15487881 -224.75634766 385.89550781 C-216.81816026 391.66387803 -208.82882799 397.356422 -200.80102539 402.99926758 C-195.61550007 406.64958476 -190.47379014 410.35724416 -185.34228516 414.08300781 C-179.77209014 418.12597789 -174.15939396 422.08871298 -168.46728516 425.95800781 C-161.6337077 430.6078879 -154.97529396 435.47356301 -148.33520508 440.39477539 C-142.00044793 445.08959948 -135.61705459 449.70725857 -129.18115234 454.26220703 C-127.29766165 455.59638942 -125.41760999 456.93533551 -123.53759766 458.27441406 C-114.56403742 464.65141078 -105.5013313 470.88764635 -96.38769531 477.06274414 C-89.85354279 481.49972071 -83.43063825 486.06125723 -77.08447266 490.76269531 C-73.97803837 492.93090345 -73.97803837 492.93090345 -70.40478516 493.52050781 C-66.90013644 490.52485012 -64.65081979 486.94662261 -62.35009766 483.00878906 C-61.97226639 482.37266693 -61.59443512 481.7365448 -61.20515442 481.08114624 C-59.97333028 479.00230834 -58.75100882 476.91808828 -57.52978516 474.83300781 C-56.66992566 473.37242707 -55.80998006 471.91189702 -54.94995117 470.45141602 C-52.42152318 466.14885582 -49.90957494 461.83686473 -47.40478516 457.52050781 C-46.75590332 456.40256836 -46.10702148 455.28462891 -45.43847656 454.1328125 C-21.62157214 412.85369391 -0.12751307 369.5485385 16.90771484 325.02050781 C17.28710205 324.04170654 17.66648926 323.06290527 18.05737305 322.05444336 C19.79242473 317.39998042 21.0921627 313.57421485 20.59521484 308.52050781 C16.30949532 307.31756328 12.1346097 307.38191724 7.71414185 307.39352417 C6.80648571 307.39196418 5.89882957 307.39040419 4.9636687 307.38879693 C1.91391379 307.38480029 -1.13579156 307.38797182 -4.18554688 307.39111328 C-6.37075835 307.38975833 -8.5559696 307.38797786 -10.74118042 307.38580322 C-16.69372409 307.38123095 -22.64625048 307.38302003 -28.59879446 307.38618231 C-34.8590865 307.38871782 -41.11937709 307.38636404 -47.37966919 307.38479614 C-58.60659334 307.3828565 -69.83351044 307.38597222 -81.06043293 307.39105548 C-92.48483663 307.39606963 -103.90922419 307.39354251 -115.33362758 307.38831031 C-125.77328314 307.38372446 -136.21293367 307.38315643 -146.65258992 307.38574898 C-152.86327396 307.38728825 -159.07395014 307.3875726 -165.28463364 307.38421249 C-188.00478804 307.37364985 -210.71857874 307.3870157 -233.43261719 307.96630859 Z M-680.40478516 309.52050781 C-680.09532114 310.95504804 -679.78328913 312.38903444 -679.47018433 313.82278442 C-679.29669905 314.62139452 -679.12321377 315.42000462 -678.94447136 316.24281502 C-678.26192515 319.12343447 -677.30504282 321.82019518 -676.22509766 324.57519531 C-675.79712891 325.67065674 -675.36916016 326.76611816 -674.92822266 327.89477539 C-674.46673828 329.05001709 -674.00525391 330.20525879 -673.52978516 331.39550781 C-673.04509766 332.61713623 -672.56041016 333.83876465 -672.06103516 335.09741211 C-661.81966248 360.74365059 -650.19970577 385.90377279 -637.18994141 410.26269531 C-634.73397709 414.87112854 -632.34830406 419.51392279 -629.96839905 424.16200256 C-609.49673809 464.12498398 -586.51941208 502.97474259 -560.40478516 539.52050781 C-559.23023527 541.17670766 -558.05575587 542.8329575 -556.88134766 544.48925781 C-555.74409316 546.08355474 -554.6061015 547.67732615 -553.46728516 549.27050781 C-552.9599585 549.9849707 -552.45263184 550.69943359 -551.92993164 551.43554688 C-548.36284495 556.38960665 -544.49490548 560.99023933 -540.40478516 565.52050781 C-531.47264198 561.42449498 -524.64020864 552.90519323 -517.80712891 546.05566406 C-516.80414613 545.05335701 -515.80101513 544.05119825 -514.79774475 543.04917908 C-512.70769378 540.96059247 -510.61943628 538.87023393 -508.5324707 536.77856445 C-505.87780645 534.11820372 -503.21867632 531.46235939 -500.55817318 528.80783939 C-498.48953567 526.74284175 -496.42331817 524.67543578 -494.35778999 522.60732841 C-493.3790651 521.6279437 -492.39961709 520.649281 -491.41938591 519.67140388 C-486.39425156 514.65569622 -481.47092077 509.61152493 -476.86376953 504.20654297 C-474.52196158 501.50029703 -472.0083991 498.97579711 -469.46728516 496.45800781 C-468.94714844 495.93907959 -468.42701172 495.42015137 -467.89111328 494.88549805 C-465.14768843 492.16969442 -462.36344687 489.56606003 -459.40478516 487.08300781 C-456.01987022 484.20395398 -453.05239544 481.01684017 -450.07666016 477.72753906 C-443.75158086 470.80975263 -437.18726091 464.15023767 -430.54882812 457.53417969 C-428.63895521 455.62972276 -426.73456367 453.71989962 -424.83056641 451.80957031 C-423.59000185 450.56966586 -422.3491275 449.33007128 -421.10791016 448.09082031 C-420.55250549 447.53339142 -419.99710083 446.97596252 -419.42486572 446.40164185 C-416.6445944 443.63756196 -413.81392431 440.99026876 -410.82955933 438.44726562 C-405.73523234 434.00465782 -400.99281377 429.23307586 -396.22851562 424.44189453 C-395.23238182 423.44383723 -394.2360169 422.44601055 -393.23944092 421.44839478 C-391.10896543 419.31477961 -388.98004814 417.17962651 -386.85235214 415.04323959 C-383.48395443 411.66122437 -380.11166054 408.28311183 -376.73880005 404.9055481 C-369.58281518 397.73850566 -362.43108243 390.56722709 -355.27978516 383.39550781 C-347.55042169 375.64408706 -339.82031429 367.89341676 -332.08531487 360.14761937 C-328.73621476 356.79355421 -325.38956384 353.43707043 -322.04480338 350.07867789 C-319.96146106 347.98785076 -317.87602608 345.89912041 -315.79003143 343.81093979 C-314.37014064 342.38829974 -312.95277146 340.96314433 -311.53549194 339.53790283 C-304.54543304 332.54726754 -304.54543304 332.54726754 -300.90994263 329.5942688 C-297.05677526 326.40462972 -296.08942392 323.98432507 -295.59228516 319.14550781 C-295.42792969 317.74171875 -295.42792969 317.74171875 -295.26025391 316.30957031 C-295.44588146 312.72746029 -296.07132971 311.2617285 -298.40478516 308.52050781 C-301.37161154 308.01774246 -303.77131524 307.86157902 -306.74256897 307.9125061 C-307.605673 307.907527 -308.46877704 307.90254789 -309.35803574 307.8974179 C-312.27003372 307.88678779 -315.18063418 307.91207171 -318.0925293 307.93701172 C-320.18384554 307.93680616 -322.27516255 307.93441293 -324.36647415 307.93000031 C-330.10051509 307.9243053 -335.83405566 307.94988514 -341.56800103 307.98070765 C-347.66976193 308.00827328 -353.77152347 308.00755248 -359.87333679 308.01022339 C-370.98625328 308.0193719 -382.09899316 308.05098109 -393.21181955 308.09403299 C-403.36251937 308.13318987 -413.51317971 308.16120634 -423.66394043 308.1784668 C-424.33234693 308.17961513 -425.00075343 308.18076347 -425.68941467 308.18194661 C-428.3915274 308.18657065 -431.09364021 308.19114608 -433.79575314 308.1956511 C-515.99978382 308.33344927 -598.20433768 308.73139976 -680.40478516 309.52050781 Z M-297.40478516 378.52050781 C-298.24138672 379.36234619 -299.07798828 380.20418457 -299.93994141 381.0715332 C-303.07583591 384.22567223 -306.21515716 387.37638223 -309.35546875 390.52612305 C-310.70827871 391.88392909 -312.06018582 393.24263532 -313.41113281 394.60229492 C-315.36491924 396.56835569 -317.3220439 398.53104227 -319.27978516 400.49316406 C-319.87283447 401.09137466 -320.46588379 401.68958527 -321.0769043 402.30592346 C-324.00884899 405.23824997 -326.98858594 408.0564626 -330.13833618 410.75447941 C-334.34342438 414.41872538 -338.30395093 418.28258974 -342.23828125 422.23374939 C-342.98423963 422.97885334 -343.730198 423.72395729 -344.49876118 424.49164015 C-346.97762593 426.96886835 -349.45291865 429.44963413 -351.92822266 431.93041992 C-353.71241632 433.71489588 -355.49683066 435.49915124 -357.28144836 437.28320312 C-361.11281686 441.11434449 -364.94265553 444.94700475 -368.77108765 448.78108025 C-374.30624624 454.32439271 -379.84418954 459.86491634 -385.38279951 465.4047801 C-394.37044031 474.39460533 -403.35584929 483.38665784 -412.33984375 492.38012695 C-421.06295051 501.11242361 -429.78711504 509.84366125 -438.51269531 518.57348633 C-439.05123972 519.11229346 -439.58978414 519.6511006 -440.14464808 520.20623522 C-442.84658265 522.90947491 -445.54853795 525.6126939 -448.25050354 528.31590259 C-470.6384762 550.71422889 -493.02278459 573.11621372 -515.40478516 595.52050781 C-513.78214365 599.88347804 -511.58369829 602.99114416 -508.52978516 606.45800781 C-508.04799805 607.01504395 -507.56621094 607.57208008 -507.06982422 608.14599609 C-506.04546414 609.33030937 -505.01870783 610.51255365 -503.98974609 611.69287109 C-502.39768916 613.52869029 -500.82455547 615.37913541 -499.25634766 617.23535156 C-494.66455763 622.66162011 -490.09842755 628.01639956 -484.97509766 632.95410156 C-483.20949076 634.7153164 -481.59253918 636.56673687 -479.96728516 638.45800781 C-474.60517135 644.65795191 -468.79727036 650.28656906 -462.58056641 655.62207031 C-460.09826318 657.78795787 -457.69423371 660.02927739 -455.27978516 662.27050781 C-425.38451113 689.45549601 -388.84248427 712.21000545 -348.40478516 718.52050781 C-347.27363281 718.71580078 -347.27363281 718.71580078 -346.11962891 718.91503906 C-334.84256581 720.54467246 -322.94966837 719.8640297 -311.65478516 718.70800781 C-310.91687744 718.63799561 -310.17896973 718.5679834 -309.41870117 718.49584961 C-304.70954319 717.95275596 -299.88544942 717.00117207 -296.40478516 713.52050781 C-296.29563279 711.51826038 -296.25786598 709.5121161 -296.24656677 707.50692749 C-296.23188213 705.53561544 -296.23188213 705.53561544 -296.21690083 703.52447891 C-296.21098899 702.04838347 -296.20518004 700.57228761 -296.19946289 699.09619141 C-296.18988458 697.54501973 -296.17988266 695.99385061 -296.16948986 694.44268417 C-296.14220746 690.17103851 -296.12128792 685.89938167 -296.10150003 681.62769556 C-296.07934758 677.05450215 -296.05174219 672.48134101 -296.0249939 667.90817261 C-295.96807484 657.9697991 -295.9191484 648.0313956 -295.87195206 638.0929718 C-295.84261602 631.9221227 -295.81147041 625.75128348 -295.78012085 619.58044434 C-295.49831962 563.79025479 -295.28020774 507.99965133 -295.22612995 452.20874131 C-295.22013609 446.41557816 -295.20927891 440.62243645 -295.19650269 434.82928467 C-295.18123753 427.81939908 -295.17323921 420.80955195 -295.175035 413.79964912 C-295.17583394 410.25176747 -295.17359334 406.70396091 -295.16291428 403.1560936 C-295.15161809 399.3442641 -295.15583786 395.53254689 -295.16186523 391.72070312 C-295.1562429 390.60145132 -295.15062056 389.48219952 -295.14482784 388.32903099 C-295.14902516 387.31917452 -295.15322248 386.30931805 -295.157547 385.26885986 C-295.15700223 384.39356251 -295.15645746 383.51826515 -295.15589619 382.61644363 C-295.21162926 380.30113609 -295.21162926 380.30113609 -297.40478516 378.52050781 Z M-255.40478516 412.52050781 C-256.82753871 415.36601491 -256.53076913 417.76318899 -256.5317688 420.94610596 C-256.53333056 421.61485731 -256.53489232 422.28360865 -256.53650141 422.9726252 C-256.54051464 425.22981908 -256.53732513 427.48694616 -256.53417969 429.74414062 C-256.53550862 431.36399022 -256.53726074 432.98383952 -256.53940392 434.60368824 C-256.54392867 439.04296317 -256.54206215 443.48221556 -256.5389843 447.92149091 C-256.53712533 451.67812074 -256.53881023 455.43474545 -256.54054713 459.19137508 C-256.5456504 470.29036928 -256.54116025 481.38934644 -256.53376007 492.48833847 C-256.53029325 497.70208704 -256.528011 502.91583524 -256.52618134 508.12958461 C-256.50901984 556.92459669 -256.48752279 605.72046531 -256.05690765 654.51390076 C-256.02976498 657.71038378 -256.00619261 660.90687638 -255.98345947 664.10339355 C-255.94791488 668.98269884 -255.90215977 673.86178716 -255.84684753 678.74090767 C-255.82847459 680.46998585 -255.81322286 682.19910059 -255.80140686 683.92823601 C-255.78485775 686.21988064 -255.75611668 688.51102453 -255.72363281 690.80249023 C-255.71030914 692.06413498 -255.69698547 693.32577972 -255.68325806 694.62565613 C-255.70238274 697.64700984 -255.70238274 697.64700984 -253.40478516 699.52050781 C-223.18474516 681.29945256 -194.3677776 657.66943293 -171.37353516 630.77050781 C-169.32679216 628.43137296 -167.22026046 626.15937177 -165.09887695 623.88818359 C-160.02702159 618.45726581 -155.19543353 612.9206828 -150.54150391 607.12207031 C-148.44596022 604.57064052 -146.26515361 602.13724008 -144.02978516 599.70800781 C-139.50944942 594.74112245 -135.39538022 589.51550991 -131.28369141 584.21191406 C-129.38091505 581.75937473 -127.45277034 579.33141135 -125.49462891 576.92285156 C-118.32927805 568.10724121 -111.56617389 559.05755769 -105.00830078 549.78125 C-103.39777229 547.51062061 -101.76915098 545.25375435 -100.13916016 542.99707031 C-99.12255374 541.5680805 -98.10688685 540.1384217 -97.09228516 538.70800781 C-96.61782959 538.05646729 -96.14337402 537.40492676 -95.65454102 536.73364258 C-93.87831093 534.19650446 -92.50893478 531.90182065 -91.68994141 528.90332031 C-92.84949657 525.03813643 -95.95611078 523.36818155 -99.15478516 521.20800781 C-99.84145264 520.72509277 -100.52812012 520.24217773 -101.2355957 519.74462891 C-106.14698557 516.31070463 -111.14631647 513.00595798 -116.15478516 509.71582031 C-120.0732179 507.06899435 -123.89451397 504.30294689 -127.71728516 501.52050781 C-137.52147215 494.39142447 -147.47103899 487.47937995 -157.43603516 480.57763672 C-166.10207248 474.5727 -174.75277614 468.54563072 -183.40478516 462.52050781 C-184.7220459 461.60374268 -184.7220459 461.60374268 -186.06591797 460.66845703 C-195.7113994 453.95216938 -205.30732792 447.17648403 -214.82348633 440.27807617 C-225.59096575 432.47691661 -236.46766165 424.83176327 -247.40478516 417.27050781 C-248.0939502 416.79210449 -248.78311523 416.31370117 -249.49316406 415.82080078 C-252.22426641 413.54920449 -252.22426641 413.54920449 -255.40478516 412.52050781 Z " fill="#000000" transform="translate(746.40478515625,127.4794921875)"/>
</svg>
